<svg xmlns="http://www.w3.org/2000/svg" viewBox="0 0 64 80" x="0px" y="0px"><circle cx="38" cy="33" r="2"/><circle cx="48" cy="33" r="2"/><circle cx="38" cy="43" r="2"/><path d="M48,41a2,2,0,0,0-2,2V53a2,2,0,0,0,4,0V43A2,2,0,0,0,48,41Z"/><circle cx="38" cy="23" r="2"/><circle cx="38" cy="53" r="2"/><path d="M29,48.263a6.493,6.493,0,0,0-.683-2.892,5.192,5.192,0,0,0-7.888-1.733l-.8.643a1,1,0,0,1-1.25,0l-.8-.643a5.192,5.192,0,0,0-7.888,1.733A6.493,6.493,0,0,0,9,48.263a11.689,11.689,0,0,0,1.035,4.823l2.229,4.953a3.388,3.388,0,0,0,4.087,1.79l2.333-.778a1,1,0,0,1,.632,0l2.334.778a3.326,3.326,0,0,0,4.086-1.791l2.229-4.952A11.689,11.689,0,0,0,29,48.263Z"/><path d="M28,21H18a2,2,0,0,0,0,4H28a2,2,0,0,0,0-4Z"/><circle cx="28" cy="33" r="2"/><path d="M16,15H50V9H16Zm30-4h2v2H46Zm-4,0h2v2H42Zm-4,0h2v2H38Z"/><path d="M53,4H13a2,2,0,0,0-2,2V41.327a7.087,7.087,0,0,1,7.036.224,12.059,12.059,0,0,1,.2-1.673,6.83,6.83,0,0,1-5.562-6.7,1,1,0,0,1,1-1,6.826,6.826,0,0,1,6.111,3.807,12.085,12.085,0,0,1,1.739-2.219l1.414,1.414a10,10,0,0,0-2.518,4.2l0,.009a10.021,10.021,0,0,0-.384,2.111,7.164,7.164,0,0,1,10.068,2.975A8.509,8.509,0,0,1,31,48.263a13.652,13.652,0,0,1-1.211,5.643l-2.228,4.953A5.337,5.337,0,0,1,26.849,60H53a2,2,0,0,0,2-2V6A2,2,0,0,0,53,4ZM28,37a4,4,0,1,1,4-4A4,4,0,0,1,28,37Zm0-10H18a4,4,0,0,1,0-8H28a4,4,0,0,1,0,8ZM38,57a4,4,0,1,1,4-4A4,4,0,0,1,38,57Zm0-10a4,4,0,1,1,4-4A4,4,0,0,1,38,47Zm0-10a4,4,0,1,1,4-4A4,4,0,0,1,38,37Zm0-10a4,4,0,1,1,4-4A4,4,0,0,1,38,27ZM52,53a4,4,0,0,1-8,0V43a4,4,0,0,1,8,0ZM48,37a4,4,0,1,1,4-4A4,4,0,0,1,48,37Zm0-10a4,4,0,1,1,4-4A4,4,0,0,1,48,27Zm4-11a1,1,0,0,1-1,1H15a1,1,0,0,1-1-1V8a1,1,0,0,1,1-1H51a1,1,0,0,1,1,1Z"/><path d="M18.366,37.865a4.842,4.842,0,0,0-3.554-3.554A4.842,4.842,0,0,0,18.366,37.865Z"/><circle cx="48" cy="23" r="2"/></svg>