<svg xmlns="http://www.w3.org/2000/svg" data-name="Layer 26" viewBox="0 0 64 80" x="0px" y="0px"><title>knife, utentil, cooking, kitchen, Chopper </title><path d="M11.927,8.112C10.4,7.017,6.465,4.4,5.893,4.715c-.623.341-.156,12.166,8.211,24.824,2.329,3.524,6.947,7.478,9.735,10.63,2.386,2.7,5.264,4.906,7.607,7.648a1.074,1.074,0,0,0,1.69-.043c.776-1.3,2.047-2.164,2.918-3.481a2.785,2.785,0,0,1,.423.273c3.666,3.873,7.679,7.392,11.415,11.194a18.86,18.86,0,0,0,2.956,2.5,4.286,4.286,0,0,0,3.461.684,7.364,7.364,0,0,0,4.952-3.952c1.123-2.041,1.108-2.835-.672-4.311-4.336-3.6-8.158-7.721-12.165-11.655C44.744,37.377,20.269,14.09,11.927,8.112ZM58.287,52.86a9.893,9.893,0,0,1-1.721,2.783c1.122-1.778,0-2.955-1.038-4.117-.885-.991-1.839-1.921-2.768-2.873a1.85,1.85,0,0,1-.753-1.333ZM39.1,34.478A3.95,3.95,0,0,1,40.146,35.6c-1.946,3.856-5.032,6.887-7.8,10.24a28.3,28.3,0,0,1-3.911-3.678q-2.313-2.488-4.722-4.884a81.162,81.162,0,0,1-9.369-10.817A51.118,51.118,0,0,1,8.761,15,59.888,59.888,0,0,1,7.2,6.492c4.557,4.071,10.016,7.436,14.472,11.561,2.475,2.292,4.915,4.647,7.292,7.047C32.207,28.379,35.656,31.424,39.1,34.478Z"/></svg>