<svg xmlns="http://www.w3.org/2000/svg" viewBox="0 0 32 40" x="0px" y="0px"><title>serving</title><g><path d="M27,19H25.94A10.09,10.09,0,0,0,19,10.46V10a3,3,0,0,0-3-3,3,3,0,0,0-3,3v.46A10.09,10.09,0,0,0,6.06,19H5a1,1,0,0,0,0,2H27a1,1,0,0,0,0-2ZM15,10a1,1,0,0,1,1-1,1,1,0,0,1,.71.31A1,1,0,0,1,17,10v.05a10,10,0,0,0-2,0ZM8.06,19a8.06,8.06,0,0,1,6.16-6.8,8.26,8.26,0,0,1,3.56,0A8.06,8.06,0,0,1,23.94,19Z"/><path d="M22,22H10a1,1,0,0,0,0,2H22a1,1,0,0,0,0-2Z"/></g><text x="0" y="47" fill="#000000" font-size="5px" font-weight="bold" font-family="'Helvetica Neue', Helvetica, Arial-Unicode, Arial, Sans-serif">Created by denimao</text><text x="0" y="52" fill="#000000" font-size="5px" font-weight="bold" font-family="'Helvetica Neue', Helvetica, Arial-Unicode, Arial, Sans-serif">from the Noun Project</text></svg>