<svg xmlns="http://www.w3.org/2000/svg" viewBox="0 0 32 40" x="0px" y="0px"><title>user interface, ui basic, app, timer, stopwatch</title><g data-name="Layer 98"><path d="M16,30A12,12,0,1,1,28,18,12,12,0,0,1,16,30ZM16,8A10,10,0,1,0,26,18,10,10,0,0,0,16,8Z"/><path d="M19,5H13a1,1,0,0,1,0-2h6a1,1,0,0,1,0,2Z"/><path d="M12.49,23.86a1,1,0,0,1-.35-1.37L15,17.72V11a1,1,0,0,1,2,0v7a1,1,0,0,1-.14.51l-3,5A1,1,0,0,1,12.49,23.86Z"/></g><text x="0" y="47" fill="#000000" font-size="5px" font-weight="bold" font-family="'Helvetica Neue', Helvetica, Arial-Unicode, Arial, Sans-serif">Created by Hakim Fadhlullah</text><text x="0" y="52" fill="#000000" font-size="5px" font-weight="bold" font-family="'Helvetica Neue', Helvetica, Arial-Unicode, Arial, Sans-serif">from the Noun Project</text></svg>